# Blender v2.70 (sub 0) OBJ File: ''
# www.blender.org
mtllib cube.mtl
o Cube
v -0.500000 -0.500000 0.500000
v -0.500000 -0.500000 -0.500000
v 0.500000 -0.500000 -0.500000
v 0.500000 -0.500000 0.500000
v -0.500000 0.500000 0.500000
v -0.500000 0.500000 -0.500000
v 0.500000 0.500000 -0.500000
v 0.500000 0.500000 0.500000
vt 0.000000 0.000000
vt 1.000000 0.000000
vt 1.000000 -1.000000
vt 0.000000 -1.000000
vt -1.000000 0.000000
vt -1.000000 -1.000000
vt 0.000000 1.000000
vt 1.000000 1.000000
vt -1.000000 1.000000
vn -1.000000 0.000000 0.000000
vn 0.000000 0.000000 -1.000000
vn 1.000000 0.000000 0.000000
vn 0.000000 0.000000 1.000000
vn 0.000000 -1.000000 0.000000
vn 0.000000 1.000000 0.000000
usemtl None
s off
f 5/1/1 6/2/1 2/3/1 1/4/1
f 6/1/2 7/2/2 3/3/2 2/4/2
f 7/1/3 8/5/3 4/6/3 3/4/3
f 8/1/4 5/5/4 1/6/4 4/4/4
f 1/1/5 2/7/5 3/8/5 4/2/5
f 8/1/6 7/7/6 6/9/6 5/5/6
